<?xml version="1.0" encoding="UTF-8" standalone="no"?>
<!DOCTYPE svg PUBLIC "-//W3C//DTD SVG 1.1//EN" "http://www.w3.org/Graphics/SVG/1.1/DTD/svg11.dtd">
<svg width="100%" height="100%" viewBox="0 0 250 250" version="1.1" xmlns="http://www.w3.org/2000/svg" xmlns:xlink="http://www.w3.org/1999/xlink" xml:space="preserve" xmlns:serif="http://www.serif.com/" style="fill-rule:evenodd;clip-rule:evenodd;">
    <g transform="matrix(1.13094,0,0,1.13094,2.26256,-21.1501)">
        <circle cx="108.527" cy="129.229" r="108.527" style="fill:url(#_Radial1);"/>
        <clipPath id="_clip2">
            <circle cx="108.527" cy="129.229" r="108.527"/>
        </clipPath>
        <g clip-path="url(#_clip2)">
            <g id="logo-chidorio" serif:id="logo chidorio" transform="matrix(0.107043,0,0,0.107043,120.933,126.018)">
                <g transform="matrix(1,0,0,1,-1502.36,-1133.86)">
                    <g transform="matrix(1.69779,0,0,1.69779,313.659,717.833)">
                        <g id="Capa-1" serif:id="Capa 1">
                            <g id="g855">
                                <g id="g882">
                                    <path id="path856" d="M347.69,642.556C298.53,592.838 263.753,508.351 256.386,459.949C234.424,332.839 295.878,213.177 342.578,142.877C368.466,103.934 383.853,78.439 384.07,74.128C324.915,96.958 263.339,139.273 209.742,109.25C189.708,90.172 187.447,49.631 191.787,23.471C192.098,5.042 214.07,-66.961 257.877,-70.955C259.327,-69.506 255.149,-64.727 245.412,-56.696C214.032,-30.09 196.953,63.996 217.539,86.989C235.6,101.593 273.425,91.721 292.018,83.554C395.068,44.814 467.283,-11.525 549.825,-62.736C649.009,-139.984 801.688,-158.641 939.074,-37.445C675.469,-190.172 489.672,1.207 387.88,226.74C285.915,483.995 443.712,691.907 695.144,670.395C757.079,661.13 851.045,639.29 904.831,620.168C922.321,610.634 930.636,609.307 930.636,613.393C759.139,694.995 515.421,776.564 347.69,642.556L347.69,642.556Z" style="fill:rgb(32,118,0);fill-rule:nonzero;stroke:black;stroke-width:14.69px;"/>
                                    <g id="g906" transform="matrix(2.03997,0,0,2.03997,-27.2258,-893.777)">
                                        <path id="path846" d="M269.956,737.857C266.002,735.088 265.629,733.641 267.335,727.679C295.565,680.321 322.326,631.968 329.408,590.055C333.779,563.265 335.081,524.657 331.614,524.657L342.734,492.414C351.27,487.386 366.45,477.742 376.468,470.982C399.337,453.985 447.89,433.015 457.06,472.655C460.562,491.32 442.313,521.322 414.742,542.227C388.281,560.639 372.76,565.58 348.063,554.655C352.37,596.278 353.883,643.049 350.534,684.742C348.482,706.745 334.02,734.469 328.356,730.97C314.733,724.439 333.011,685.428 334.237,663.451C335.127,647.484 330.233,653.68 301.69,704.657C292.474,715.402 283.881,747.505 269.956,737.857ZM400.896,533.361C490.539,466.957 392.944,443.877 350.762,516.07C345.36,526.658 345.105,538.65 350.218,541.628C366.027,546.046 386.946,541.765 400.896,533.361Z" style="fill:rgb(248,202,0);fill-rule:nonzero;stroke:black;stroke-width:7.2px;"/>
                                        <g id="path863-4" transform="matrix(0.899476,0.43697,-0.48654,0.873659,0,0)">
                                            <ellipse cx="522.548" cy="257.719" rx="17.062" ry="29.027" style="fill:none;stroke:black;stroke-width:8.09px;"/>
                                        </g>
                                        <g id="path863-4-6" transform="matrix(0.899476,0.43697,-0.48654,0.873659,0,0)">
                                            <ellipse cx="385.882" cy="256.643" rx="23.685" ry="40.295" style="fill:none;stroke:black;stroke-width:11.23px;"/>
                                        </g>
                                    </g>
                                    <g id="g910" transform="matrix(2.03997,0,0,2.03997,-16.1421,-849.908)">
                                        <path id="path861" d="M409.654,709.253C405.392,705.01 397.206,691.907 399.398,688.076C419.889,654.608 436.825,624.451 457.142,593.09C462.851,584.653 468.564,573.577 468.316,571.426C467.962,568.359 460.83,567.089 455.422,569.131C447.916,571.073 435.587,586.347 426.093,593.339C414.978,592.667 412.71,577.59 414.905,569.037C422.739,558.73 432.143,551.381 443.236,545.562C447.533,542.83 453.376,541.345 461.491,540.924C468.318,540.571 470.07,540.955 479.397,544.853C486.114,548.819 493.576,555.542 498.907,560.819C512.18,578.261 518.887,569.123 528.82,561.765C534.149,557.94 534.467,557.777 538.711,556.697C546.249,555.69 554.129,562.156 556.747,567.405C564.503,583.369 539.694,590.098 530.237,595.761C509.493,605.68 509.741,593.293 491.019,587.027C488.409,590.937 487.036,595.049 484.156,599.148C469.142,621.622 492.414,629.513 504.949,641.036C511.176,646.079 525.205,661.104 524.076,667.7C522.566,671.073 518.792,676.153 515.457,679.301C507.182,687.113 502.54,685.579 496.171,672.928C489.702,665.53 475.367,635.646 464.807,638.146C441.178,650.457 435.87,709.953 411.996,710.017C411.647,710.005 410.593,709.662 409.654,709.253L409.654,709.253ZM452.734,654C452.556,653.822 452.094,653.803 451.707,653.957C451.28,654.128 451.406,654.255 452.031,654.281C452.595,654.304 452.912,654.178 452.734,654L452.734,654Z" style="fill:rgb(12,17,130);fill-rule:nonzero;stroke:black;stroke-width:7.2px;"/>
                                        <g id="path863-4-8" transform="matrix(0.899476,0.43697,-0.48654,0.873659,0,0)">
                                            <ellipse cx="701.991" cy="248.909" rx="14.355" ry="24.421" style="fill:none;stroke:black;stroke-width:5.15px;"/>
                                        </g>
                                    </g>
                                    <path id="path912" d="M367.992,367.406C379.485,391.617 422.473,442.062 472.77,444.815C556.974,356.164 648.062,218.275 671.942,110.734C576.768,222.804 483.778,344.301 367.992,367.406Z" style="fill:rgb(12,17,130);fill-rule:nonzero;"/>
                                </g>
                            </g>
                        </g>
                    </g>
                </g>
            </g>
        </g>
    </g>
    <defs>
        <radialGradient id="_Radial1" cx="0" cy="0" r="1" gradientUnits="userSpaceOnUse" gradientTransform="matrix(108.527,0,0,108.527,108.527,129.229)"><stop offset="0" style="stop-color:white;stop-opacity:1"/><stop offset="0.65" style="stop-color:rgb(251,251,251);stop-opacity:1"/><stop offset="0.84" style="stop-color:rgb(239,239,239);stop-opacity:1"/><stop offset="1" style="stop-color:rgb(224,224,224);stop-opacity:1"/></radialGradient>
    </defs>
</svg>
